HIERARCHY
ROOT hips
{
  OFFSET 0 10.6860622 2.3727825e-15
  CHANNELS 6 Xposition Yposition Zposition Yrotation Xrotation Zrotation
  JOINT leftUpperLeg
  {
    OFFSET 0.6642549969 -0.9402397400000004 0
    CHANNELS 3 Yrotation Xrotation Zrotation
    JOINT leftLowerLeg
    {
      OFFSET 0 -3.997221335632195 0
      CHANNELS 3 Yrotation Xrotation Zrotation
      JOINT leftFoot
      {
        OFFSET -0.13777839790000004 -4.6145792000000005 -0.22186036399999998
        CHANNELS 3 Yrotation Xrotation Zrotation
        JOINT leftToes
        {
          OFFSET -0.03777410834999995 -0.9130806927000008 0.85230013
          CHANNELS 3 Yrotation Xrotation Zrotation
          End Site
          {
            OFFSET -0.03777410834999995 -0.9130806927000008 0.85230013
          }
        }
      }
    }
  }
  JOINT rightUpperLeg
  {
    OFFSET -0.6642778626 -0.9402397400000004 0
    CHANNELS 3 Yrotation Xrotation Zrotation
    JOINT rightLowerLeg
    {
      OFFSET 0 -3.997221452859387 0
      CHANNELS 3 Yrotation Xrotation Zrotation
      JOINT rightFoot
      {
        OFFSET 0.1377926176 -4.6145792000000005 -0.22185782299999995
        CHANNELS 3 Yrotation Xrotation Zrotation
        JOINT rightToes
        {
          OFFSET 0.037780746850000047 -0.9130806927000008 0.85230167
          CHANNELS 3 Yrotation Xrotation Zrotation
          End Site
          {
            OFFSET 0.037780746850000047 -0.9130806927000008 0.85230167
          }
        }
      }
    }
  }
  JOINT spine
  {
    OFFSET 0 0.13988381660000015 0
    CHANNELS 3 Yrotation Xrotation Zrotation
    JOINT chest
    {
      OFFSET 0 0.6191039003973773 0
      CHANNELS 3 Yrotation Xrotation Zrotation
      JOINT upperChest
      {
        OFFSET 0 0.9855186130586943 0
        CHANNELS 3 Yrotation Xrotation Zrotation
        JOINT leftShoulder
        {
          OFFSET 0.1807663869 1.5087829790000005 0
          CHANNELS 3 Yrotation Xrotation Zrotation
          JOINT leftUpperArm
          {
            OFFSET 0.5985063006419806 0 0
            CHANNELS 3 Yrotation Xrotation Zrotation
            JOINT leftLowerArm
            {
              OFFSET 2.2993332369501065 0 0
              CHANNELS 3 Yrotation Xrotation Zrotation
              JOINT leftHand
              {
                OFFSET 2.395047042602395 0 0
                CHANNELS 3 Yrotation Xrotation Zrotation
                JOINT leftIndexProximal
                {
                  OFFSET 0.5766295810000004 0.04556643899499946 0.17265095988184
                  CHANNELS 3 Yrotation Xrotation Zrotation
                  JOINT leftIndexIntermediate
                  {
                    OFFSET 0.2957229000000008 -0.019352197700001517 -0.007932640616999987
                    CHANNELS 3 Yrotation Xrotation Zrotation
                    JOINT leftIndexDistal
                    {
                      OFFSET 0.19008243099999922 -0.012484908149998475 -0.002786250786000012
                      CHANNELS 3 Yrotation Xrotation Zrotation
                      End Site
                      {
                        OFFSET 0.19008243099999922 -0.012484908149998475 -0.002786250786000012
                      }
                    }
                  }
                }
                JOINT leftMiddleProximal
                {
                  OFFSET 0.5834975091000001 0.0524350405149987 0.02204081888183999
                  CHANNELS 3 Yrotation Xrotation Zrotation
                  JOINT leftMiddleIntermediate
                  {
                    OFFSET 0.33880573540000003 -0.019871473270000717 -0.00000971183179999946
                    CHANNELS 3 Yrotation Xrotation Zrotation
                    JOINT leftMiddleDistal
                    {
                      OFFSET 0.20676022730000088 -0.012221336379999448 0.0001471936708000235
                      CHANNELS 3 Yrotation Xrotation Zrotation
                      End Site
                      {
                        OFFSET 0.20676022730000088 -0.012221336379999448 0.0001471936708000235
                      }
                    }
                  }
                }
                JOINT leftLittleProximal
                {
                  OFFSET 0.5344154683999995 -0.012880921405001189 -0.24414037221816004
                  CHANNELS 3 Yrotation Xrotation Zrotation
                  JOINT leftLittleIntermediate
                  {
                    OFFSET 0.21758961730000093 -0.011650919939999227 0.011893592810000034
                    CHANNELS 3 Yrotation Xrotation Zrotation
                    JOINT leftLittleDistal
                    {
                      OFFSET 0.1475273964999999 -0.008152365682999818 0.006001092492999946
                      CHANNELS 3 Yrotation Xrotation Zrotation
                      End Site
                      {
                        OFFSET 0.1475273964999999 -0.008152365682999818 0.006001092492999946
                      }
                    }
                  }
                }
                JOINT leftRingProximal
                {
                  OFFSET 0.5799399463000003 0.026911854694997794 -0.12150566991816003
                  CHANNELS 3 Yrotation Xrotation Zrotation
                  JOINT leftRingIntermediate
                  {
                    OFFSET 0.26167887460000006 -0.013480186499999602 0.010996293000000053
                    CHANNELS 3 Yrotation Xrotation Zrotation
                    JOINT leftRingDistal
                    {
                      OFFSET 0.17667108799999987 -0.008990287899999228 0.0055541023999999065
                      CHANNELS 3 Yrotation Xrotation Zrotation
                      End Site
                      {
                        OFFSET 0.17667108799999987 -0.008990287899999228 0.0055541023999999065
                      }
                    }
                  }
                }
                JOINT leftThumbProximal
                {
                  OFFSET 0.11018806699999972 -0.09448718900500053 0.17047963138184
                  CHANNELS 3 Yrotation Xrotation Zrotation
                  JOINT leftThumbIntermediate
                  {
                    OFFSET 0.31062601459999983 -0.08126270900000132 0.15443142000000007
                    CHANNELS 3 Yrotation Xrotation Zrotation
                    JOINT leftThumbDistal
                    {
                      OFFSET 0.21627175790000086 -0.08833193599999878 0.018771167799999988
                      CHANNELS 3 Yrotation Xrotation Zrotation
                      End Site
                      {
                        OFFSET 0.21627175790000086 -0.08833193599999878 0.018771167799999988
                      }
                    }
                  }
                }
              }
            }
          }
        }
        JOINT neck
        {
          OFFSET 0 1.5463305265074576 0
          CHANNELS 3 Yrotation Xrotation Zrotation
          JOINT head
          {
            OFFSET 0 0.8456443600000344 0
            CHANNELS 3 Yrotation Xrotation Zrotation
            JOINT leftEye
            {
              OFFSET 0.30408573140000006 0.5104519199999995 0.1276382305
              CHANNELS 3 Yrotation Xrotation Zrotation
              End Site
              {
                OFFSET 0.30408573140000006 0.5104519199999995 0.1276382305
              }
            }
            JOINT rightEye
            {
              OFFSET -0.30409491089999996 0.5104519199999995 0.1276379445
              CHANNELS 3 Yrotation Xrotation Zrotation
              End Site
              {
                OFFSET -0.30409491089999996 0.5104519199999995 0.1276379445
              }
            }
            JOINT jaw
            {
              OFFSET -3.155239131000001e-7 -0.11984121820000082 0.60178107
              CHANNELS 3 Yrotation Xrotation Zrotation
              End Site
              {
                OFFSET -3.155239131000001e-7 -0.11984121820000082 0.60178107
              }
            }
          }
        }
        JOINT rightShoulder
        {
          OFFSET -0.1807303465 1.5087829790000005 0
          CHANNELS 3 Yrotation Xrotation Zrotation
          JOINT rightUpperArm
          {
            OFFSET -0.5985063796536958 0 0
            CHANNELS 3 Yrotation Xrotation Zrotation
            JOINT rightLowerArm
            {
              OFFSET -2.2993322059002854 0 0
              CHANNELS 3 Yrotation Xrotation Zrotation
              JOINT rightHand
              {
                OFFSET -2.395045314457259 0 0
                CHANNELS 3 Yrotation Xrotation Zrotation
                JOINT rightIndexProximal
                {
                  OFFSET -0.5764487688300002 0.0441371204405987 0.17361932004999997
                  CHANNELS 3 Yrotation Xrotation Zrotation
                  JOINT rightIndexIntermediate
                  {
                    OFFSET -0.29573011380000047 -0.01934826376999843 -0.007698921482999974
                    CHANNELS 3 Yrotation Xrotation Zrotation
                    JOINT rightIndexDistal
                    {
                      OFFSET -0.19008373999999884 -0.012503266380000655 -0.0026365778999999897
                      CHANNELS 3 Yrotation Xrotation Zrotation
                      End Site
                      {
                        OFFSET -0.19008373999999884 -0.012503266380000655 -0.0026365778999999897
                      }
                    }
                  }
                }
                JOINT rightMiddleProximal
                {
                  OFFSET -0.5834852037300005 0.05211639405060153 0.02307162440000001
                  CHANNELS 3 Yrotation Xrotation Zrotation
                  JOINT rightMiddleIntermediate
                  {
                    OFFSET -0.33880114510000003 -0.019952774050000954 0.0002455003561999819
                    CHANNELS 3 Yrotation Xrotation Zrotation
                    JOINT rightMiddleDistal
                    {
                      OFFSET -0.20675694929999955 -0.012273788999999091 0.00030209124000002766
                      CHANNELS 3 Yrotation Xrotation Zrotation
                      End Site
                      {
                        OFFSET -0.20675694929999955 -0.012273788999999091 0.00030209124000002766
                      }
                    }
                  }
                }
                JOINT rightLittleProximal
                {
                  OFFSET -0.5346811737299992 -0.011214256288399227 -0.24363941305000003
                  CHANNELS 3 Yrotation Xrotation Zrotation
                  JOINT rightLittleIntermediate
                  {
                    OFFSET -0.21757715980000092 -0.011771559690000988 0.01201554387
                    CHANNELS 3 Yrotation Xrotation Zrotation
                    JOINT rightLittleDistal
                    {
                      OFFSET -0.1475201849000004 -0.00822055339600003 0.006082065407000015
                      CHANNELS 3 Yrotation Xrotation Zrotation
                      End Site
                      {
                        OFFSET -0.1475201849000004 -0.00822055339600003 0.006082065407000015
                      }
                    }
                  }
                }
                JOINT rightRingProximal
                {
                  OFFSET -0.5800810755299999 0.027657985680600072 -0.12066365025000003
                  CHANNELS 3 Yrotation Xrotation Zrotation
                  JOINT rightRingIntermediate
                  {
                    OFFSET -0.26166445029999974 -0.013623118409999302 0.011164098990000045
                    CHANNELS 3 Yrotation Xrotation Zrotation
                    JOINT rightRingDistal
                    {
                      OFFSET -0.17666387530000027 -0.009072900100000503 0.005668185599999959
                      CHANNELS 3 Yrotation Xrotation Zrotation
                      End Site
                      {
                        OFFSET -0.17666387530000027 -0.009072900100000503 0.005668185599999959
                      }
                    }
                  }
                }
                JOINT rightThumbProximal
                {
                  OFFSET -0.10997596379000074 -0.09577489355940072 0.16989765924999997
                  CHANNELS 3 Yrotation Xrotation Zrotation
                  JOINT rightThumbIntermediate
                  {
                    OFFSET -0.31036620999999986 -0.08229339117999834 0.15440884469999996
                    CHANNELS 3 Yrotation Xrotation Zrotation
                    JOINT rightThumbDistal
                    {
                      OFFSET -0.21631306399999906 -0.08825326400000111 0.018656797720000014
                      CHANNELS 3 Yrotation Xrotation Zrotation
                      End Site
                      {
                        OFFSET -0.21631306399999906 -0.08825326400000111 0.018656797720000014
                      }
                    }
                  }
                }
              }
            }
          }
        }
      }
    }
  }
}
MOTION
Frames: 10
Frame Time: 0.03333333333333333
2.146855284994657 -7.905465901739731 2.1468555533869287 0 -33.000098818213324 0 -25.16733457234424 -7.497026936839865 32.988764864836696 173.82754613574946 46.498077535618044 171.5197900105093 -0.001036456533054044 48.99828927993081 -1.00161619333034 0 0 0 22.892096978256227 -0.06010944433269322 -37.19697209391874 -173.41813124029784 48.32352261224107 -171.21833230964097 0 20.996786438572162 0 0 0 0 0 53.38735366948674 0 0 23.081294275643288 0 0 0 0 0 1.5275236235667615 0 1.2112896090116363 4.848100810241368 -75.94867920802388 -141.00519011856133 0 0 9.669500885223002 -10.92583680247137 -13.794548888382778 0 0 0 0 0 0 0 0 0 0 0 0 0 0 0 0 0 0 0 0 0 0 0 0 0 0 0 0 0 0 0 0 0 0 0 0 0 0 0 0 0 0 0 0 0 0 32.52667392937385 0 22.615884355131993 -13.676613487138491 -4.047696003093841 0 0 0 0 0 0 0 0 0 1.9994068263450637 1.5265940675436347 0.05328769985129401 39.82048660458556 -37.12436863024299 62.461623498620305 11.085490161130489 0.9935849094841576 4.997719503622926 4.521375988356532 16.40303626586284 15.650049251163555 0 0 0 0 0 0 0 0 0 0 0 0 0 0 0 0 0 0 0 0 0 0 0 0 0 0 0 0 0 0 0 0 0 0 0 0 0 0 0 0 0 0 0 0 0
2.146855284994657 -7.967355817541557 2.1468555533869287 0 -33.000098818213324 0 -24.810398850187926 -7.755779309940904 34.257883563651944 173.9256355065257 46.041364785898764 171.59067038695548 -0.001036456533054044 48.99828927993081 -1.00161619333034 0 0 0 22.46766236287417 0.3864943346159657 -38.265255046998355 -173.41813124029784 48.32352261224107 -171.21833230964097 0 20.996786438572162 0 0 0 0 0 53.38735366948674 0 0 23.081294275643288 0 0 0 0 0 1.5275236235667615 0 1.2112896090116363 4.848100810241368 -75.94867920802388 -141.00519011856133 0 0 10.247247345637598 -11.568341066346779 -13.840896978929498 0 0 0 0 0 0 0 0 0 0 0 0 0 0 0 0 0 0 0 0 0 0 0 0 0 0 0 0 0 0 0 0 0 0 0 0 0 0 0 0 0 0 0 0 0 0 32.52667392937385 0 22.95899487288925 -12.37950173070927 -3.8485627663769524 0 0 0 0 0 0 0 0 0 1.9994068263450637 1.5265940675436347 0.05328769985129401 39.82048660458556 -37.12436863024299 62.461623498620305 11.085490161130489 0.9935849094841576 4.997719503622926 4.521375988356532 16.40303626586284 15.650049251163555 0 0 0 0 0 0 0 0 0 0 0 0 0 0 0 0 0 0 0 0 0 0 0 0 0 0 0 0 0 0 0 0 0 0 0 0 0 0 0 0 0 0 0 0 0
2.146855284994657 -8.029246001735652 2.1468555533869287 0 -33.000098818213324 0 -24.458955051231726 -8.02242489970989 35.526700594516576 174.02211955198274 45.58456104464819 171.65985602798605 -0.001036456533054044 48.99828927993081 -1.00161619333034 0 0 0 22.03478470395345 0.8252369933071338 -39.337257662782264 -173.41813124029784 48.32352261224107 -171.21833230964097 0 20.996786438572162 0 0 0 0 0 53.38735366948674 0 0 23.081294275643288 0 0 0 0 0 1.5275236235667615 0 1.2112896090116363 4.848100810241368 -75.94867920802388 -141.00519011856133 0 0 10.826527139126298 -12.2099563281709 -13.893943386989585 0 0 0 0 0 0 0 0 0 0 0 0 0 0 0 0 0 0 0 0 0 0 0 0 0 0 0 0 0 0 0 0 0 0 0 0 0 0 0 0 0 0 0 0 0 0 32.52667392937385 0 23.30300893224355 -11.091364474052087 -3.6437146251533727 0 0 0 0 0 0 0 0 0 1.9994068263450637 1.5265940675436347 0.05328769985129401 39.82048660458556 -37.12436863024299 62.461623498620305 11.085490161130489 0.9935849094841576 4.997719503622926 4.521375988356532 16.40303626586284 15.650049251163555 0 0 0 0 0 0 0 0 0 0 0 0 0 0 0 0 0 0 0 0 0 0 0 0 0 0 0 0 0 0 0 0 0 0 0 0 0 0 0 0 0 0 0 0 0
2.146855284994657 -8.091135649145206 2.1468555533869287 0 -33.000098818213324 0 -24.113283213339287 -8.296748372037506 36.79489581805963 174.11704858884937 45.12765435985353 171.7273973912894 -0.001036456533054044 48.99828927993081 -1.00161619333034 0 0 0 21.593662098253223 1.2558490837216931 -40.412840590139034 -173.41813124029784 48.32352261224107 -171.21833230964097 0 20.996786438572162 0 0 0 0 0 53.38735366948674 0 0 23.081294275643288 0 0 0 0 0 1.5275236235667615 0 1.2112896090116363 4.848100810241368 -75.94867920802388 -141.00519011856133 0 0 11.407436686575647 -12.850545987177597 -13.95372986446169 0 0 0 0 0 0 0 0 0 0 0 0 0 0 0 0 0 0 0 0 0 0 0 0 0 0 0 0 0 0 0 0 0 0 0 0 0 0 0 0 0 0 0 0 0 0 32.52667392937385 0 23.648079749492773 -9.812527639065516 -3.4332182924299315 0 0 0 0 0 0 0 0 0 1.9994068263450637 1.5265940675436347 0.05328769985129401 39.82048660458556 -37.12436863024299 62.461623498620305 11.085490161130489 0.9935849094841576 4.997719503622926 4.521375988356532 16.40303626586284 15.650049251163555 0 0 0 0 0 0 0 0 0 0 0 0 0 0 0 0 0 0 0 0 0 0 0 0 0 0 0 0 0 0 0 0 0 0 0 0 0 0 0 0 0 0 0 0 0
2.146855284994657 -8.153026101731573 2.1468555533869287 0 -33.000098818213324 0 -23.77363269500106 -8.57853614143826 38.06212967991511 174.2104663661548 44.670690517453835 171.7933380402682 -0.001036456533054044 48.99828927993081 -1.00161619333034 0 0 0 21.144497351595838 1.6780360394739466 -41.49176847216623 -173.41813124029784 48.32352261224107 -171.21833230964097 0 20.996786438572162 0 0 0 0 0 53.38735366948674 0 0 23.081294275643288 0 0 0 0 0 1.5275236235667615 0 1.2112896090116363 4.848100810241368 -75.94867920802388 -141.00519011856133 0 0 11.990061293622482 -13.489967643572088 -14.02028618228706 0 0 0 0 0 0 0 0 0 0 0 0 0 0 0 0 0 0 0 0 0 0 0 0 0 0 0 0 0 0 0 0 0 0 0 0 0 0 0 0 0 0 0 0 0 0 32.52667392937385 0 23.994369262971638 -8.543301054293156 -3.217138149098402 0 0 0 0 0 0 0 0 0 1.9994068263450637 1.5265940675436347 0.05328769985129401 39.82048660458556 -37.12436863024299 62.461623498620305 11.085490161130489 0.9935849094841576 4.997719503622926 4.521375988356532 16.40303626586284 15.650049251163555 0 0 0 0 0 0 0 0 0 0 0 0 0 0 0 0 0 0 0 0 0 0 0 0 0 0 0 0 0 0 0 0 0 0 0 0 0 0 0 0 0 0 0 0 0
2.146855284994657 -8.214915749141127 2.1468555533869287 0 -33.000098818213324 0 -23.440253577015163 -8.867554755554346 39.32803889084995 174.3024216133271 44.21365166735127 171.85772574794615 -0.001036456533054044 48.99828927993081 -1.00161619333034 0 0 0 20.687514078558976 2.091545901269621 -42.57387813907782 -173.41813124029784 48.32352261224107 -171.21833230964097 0 20.996786438572162 0 0 0 0 0 53.38735366948674 0 0 23.081294275643288 0 0 0 0 0 1.5275236235667615 0 1.2112896090116363 4.848100810241368 -75.94867920802388 -141.00519011856133 0 0 12.574490795350465 -14.12809309921466 -14.09365380744192 0 0 0 0 0 0 0 0 0 0 0 0 0 0 0 0 0 0 0 0 0 0 0 0 0 0 0 0 0 0 0 0 0 0 0 0 0 0 0 0 0 0 0 0 0 0 32.52667392937385 0 24.342038007488092 -7.283978674569731 -2.9955298373608508 0 0 0 0 0 0 0 0 0 1.9994068263450637 1.5265940675436347 0.05328769985129401 39.82048660458556 -37.12436863024299 62.461623498620305 11.085490161130489 0.9935849094841576 4.997719503622926 4.521375988356532 16.40303626586284 15.650049251163555 0 0 0 0 0 0 0 0 0 0 0 0 0 0 0 0 0 0 0 0 0 0 0 0 0 0 0 0 0 0 0 0 0 0 0 0 0 0 0 0 0 0 0 0 0
2.146855284994657 -8.276805933335224 2.1468555533869287 0 -33.000098818213324 0 -23.113399559530976 -9.163557708000363 40.592336565779306 174.39294900790412 43.75660063924006 171.92059485983572 -0.001036456533054044 48.99828927993081 -1.00161619333034 0 0 0 20.222932776586816 2.496111818993723 -43.65893123382005 -173.41813124029784 48.32352261224107 -171.21833230964097 0 20.996786438572162 0 0 0 0 0 53.38735366948674 0 0 23.081294275643288 0 0 0 0 0 1.5275236235667615 0 1.2112896090116363 4.848100810241368 -75.94867920802388 -141.00519011856133 0 0 13.160814709972707 -14.764773071407946 -14.1738680058202 0 0 0 0 0 0 0 0 0 0 0 0 0 0 0 0 0 0 0 0 0 0 0 0 0 0 0 0 0 0 0 0 0 0 0 0 0 0 0 0 0 0 0 0 0 0 32.52667392937385 0 24.691226460002596 -6.034849315334798 -2.7684411218228364 0 0 0 0 0 0 0 0 0 1.9994068263450637 1.5265940675436347 0.05328769985129401 39.82048660458556 -37.12436863024299 62.461623498620305 11.085490161130489 0.9935849094841576 4.997719503622926 4.521375988356532 16.40303626586284 15.650049251163555 0 0 0 0 0 0 0 0 0 0 0 0 0 0 0 0 0 0 0 0 0 0 0 0 0 0 0 0 0 0 0 0 0 0 0 0 0 0 0 0 0 0 0 0 0
2.146855284994657 -8.338696117529318 2.1468555533869287 0 -33.000098818213324 0 -22.793288897160615 -9.466296595339577 41.85470240233632 174.482094540821 43.29952303529171 171.98199110668034 -0.001036456533054044 48.99828927993081 -1.00161619333034 0 0 0 19.750996838817684 2.8914750832712044 -44.74669358021285 -173.41813124029784 48.32352261224107 -171.21833230964097 0 20.996786438572162 0 0 0 0 0 53.38735366948674 0 0 23.081294275643288 0 0 0 0 0 1.5275236235667615 0 1.2112896090116363 4.848100810241368 -75.94867920802388 -141.00519011856133 0 0 13.749130189399597 -15.399874804582845 -14.260974817572425 0 0 0 0 0 0 0 0 0 0 0 0 0 0 0 0 0 0 0 0 0 0 0 0 0 0 0 0 0 0 0 0 0 0 0 0 0 0 0 0 0 0 0 0 0 0 32.52667392937385 0 25.130159845682496 -4.819537821524998 -2.232724746288259 0 0 0 0 0 0 0 0 0 1.9994068263450637 1.5265940675436347 0.05328769985129401 39.82048660458556 -37.12436863024299 62.461623498620305 11.085490161130489 0.9935849094841576 4.997719503622926 4.521375988356532 16.40303626586284 15.650049251163555 0 0 0 0 0 0 0 0 0 0 0 0 0 0 0 0 0 0 0 0 0 0 0 0 0 0 0 0 0 0 0 0 0 0 0 0 0 0 0 0 0 0 0 0 0
2.146855284994657 -8.400586033331143 2.1468555533869287 0 -33.000098818213324 0 -22.480136263756986 -9.775505463280432 43.11478830388343 174.56989812134987 42.84243726556142 172.0419533369944 -0.001036456533054044 48.99828927993081 -1.00161619333034 0 0 0 19.27195111020118 3.277408266386783 -45.83695377895169 -173.41813124029784 48.32352261224107 -171.21833230964097 0 20.996786438572162 0 0 0 0 0 53.38735366948674 0 0 23.081294275643288 0 0 0 0 0 1.5275236235667615 0 1.2112896090116363 4.848100810241368 -75.94867920802388 -141.00519011856133 0 0 14.339516650743901 -16.033261723230442 -14.355000932895253 0 0 0 0 0 0 0 0 0 0 0 0 0 0 0 0 0 0 0 0 0 0 0 0 0 0 0 0 0 0 0 0 0 0 0 0 0 0 0 0 0 0 0 0 0 0 32.52667392937385 0 25.57999283671314 -3.6078451004834893 -1.6882822111493967 0 0 0 0 0 0 0 0 0 1.9994068263450637 1.5265940675436347 0.05328769985129401 39.82048660458556 -37.12436863024299 62.461623498620305 11.085490161130489 0.9935849094841576 4.997719503622926 4.521375988356532 16.40303626586284 15.650049251163555 0 0 0 0 0 0 0 0 0 0 0 0 0 0 0 0 0 0 0 0 0 0 0 0 0 0 0 0 0 0 0 0 0 0 0 0 0 0 0 0 0 0 0 0 0
2.146855284994657 -8.462476217525241 2.1468555533869287 0 -33.000098818213324 0 -22.174157986929412 -10.090920609506917 44.372341018069754 174.65639564496465 42.385379470405205 172.10051698358626 -0.001036456533054044 48.99828927993081 -1.00161619333034 0 0 0 18.786071553293958 3.653681867094083 -46.929456127818746 -173.41813124029784 48.32352261224107 -171.21833230964097 0 20.996786438572162 0 0 0 0 0 53.38735366948674 0 0 23.081294275643288 0 0 0 0 0 1.5275236235667615 0 1.2112896090116363 4.848100810241368 -75.94867920802388 -140.12187247416946 0 0 14.041311191479199 -15.87516978919204 -13.71814810404306 0 0 0 0 0 0 0 0 0 0 0 0 0 0 0 0 0 0 0 0 0 0 0 0 0 0 0 0 0 0 0 0 0 0 0 0 0 0 0 0 0 0 0 0 0 0 32.52667392937385 0 26.04089300615704 -2.40032061627036 -1.134852850200463 0 0 0 0 0 0 0 0 0 1.9994068263450637 1.5265940675436347 0.05328769985129401 39.82048660458556 -37.12436863024299 62.461623498620305 11.085490161130489 0.9935849094841576 4.997719503622926 4.521375988356532 16.40303626586284 15.650049251163555 0 0 0 0 0 0 0 0 0 0 0 0 0 0 0 0 0 0 0 0 0 0 0 0 0 0 0 0 0 0 0 0 0 0 0 0 0 0 0 0 0 0 0 0 0
